<svg width="25" height="25" viewBox="0 0 25 25" fill="none" xmlns="http://www.w3.org/2000/svg">
<path d="M9.82778 10.7143C10.6611 10.7143 11.3361 11.25 11.3208 11.9048C11.3208 12.5595 10.6625 13.0952 9.82778 13.0952C9.00833 13.0952 8.33333 12.5595 8.33333 11.9048C8.33333 11.25 8.99306 10.7143 9.82778 10.7143ZM15.1722 10.7143C16.0069 10.7143 16.6667 11.25 16.6667 11.9048C16.6667 12.5595 16.0069 13.0952 15.1722 13.0952C14.3528 13.0952 13.6792 12.5595 13.6792 11.9048C13.6792 11.25 14.3375 10.7143 15.1722 10.7143ZM22.0708 0C23.6861 0 25 1.15 25 2.575V25L21.9292 22.625L20.2 21.225L18.3708 19.7369L19.1292 22.05H2.92917C1.31389 22.05 0 20.9 0 19.475V2.575C0 1.15 1.31389 0 2.92917 0H22.0694H22.0708ZM16.5569 16.325C19.7139 16.2381 20.9292 14.425 20.9292 14.425C20.9292 10.4 18.8708 7.1369 18.8708 7.1369C16.8153 5.78809 14.8569 5.825 14.8569 5.825L14.6569 6.025C17.0861 6.675 18.2139 7.6131 18.2139 7.6131C16.8876 6.97261 15.4259 6.56469 13.9139 6.4131C12.9548 6.32024 11.986 6.32824 11.0292 6.4369C10.9431 6.4369 10.8708 6.45 10.7861 6.4619C10.2861 6.5 9.07083 6.6619 7.54306 7.25C7.01528 7.46191 6.7 7.6131 6.7 7.6131C6.7 7.6131 7.88611 6.625 10.4569 5.975L10.3139 5.825C10.3139 5.825 8.35694 5.78809 6.3 7.13809C6.3 7.13809 4.24306 10.4 4.24306 14.425C4.24306 14.425 5.44306 16.2369 8.6 16.325C8.6 16.325 9.12778 15.7631 9.55833 15.2881C7.74306 14.8119 7.05833 13.8119 7.05833 13.8119C7.05833 13.8119 7.2 13.9 7.45694 14.025C7.47083 14.0369 7.48472 14.05 7.51389 14.0619C7.55694 14.0881 7.6 14.1 7.64306 14.125C8 14.3 8.35694 14.4369 8.68472 14.55C9.27083 14.75 9.97083 14.95 10.7861 15.0881C12.0074 15.2933 13.2631 15.2973 14.4861 15.1C15.1985 14.991 15.8935 14.8108 16.5569 14.5631C17.0569 14.4 17.6139 14.1619 18.2 13.825C18.2 13.825 17.4861 14.85 15.6139 15.3131C16.0431 15.7881 16.5583 16.325 16.5583 16.325H16.5569Z" fill="white"/>
</svg>
