<svg width="25" height="25" viewBox="0 0 25 25" fill="none" xmlns="http://www.w3.org/2000/svg">
<path d="M12.5 0C5.59375 0 1.82443e-06 5.73538 1.82443e-06 12.8165C-0.00141595 15.507 0.823519 18.1297 2.35777 20.3124C3.89202 22.4952 6.05768 24.1271 8.5475 24.9768C9.1725 25.0883 9.40625 24.7038 9.40625 24.3667C9.40625 24.063 9.39 23.0543 9.39 21.9803C6.25 22.5737 5.4375 21.1959 5.1875 20.4743C5.04625 20.1052 4.4375 18.9684 3.90625 18.6634C3.46875 18.4237 2.84375 17.8303 3.89 17.8149C4.875 17.7983 5.5775 18.7441 5.8125 19.1286C6.9375 21.0665 8.735 20.5218 9.4525 20.186C9.5625 19.3529 9.89 18.7928 10.25 18.4724C7.46875 18.152 4.5625 17.0459 4.5625 12.1436C4.5625 10.7492 5.04625 9.59698 5.84375 8.69855C5.71875 8.37814 5.28125 7.06445 5.96875 5.30218C5.96875 5.30218 7.015 4.96639 9.40625 6.61715C10.4238 6.32758 11.4752 6.18183 12.5313 6.18395C13.5938 6.18395 14.6563 6.3275 15.6563 6.61587C18.0463 4.94973 19.0938 5.30346 19.0938 5.30346C19.7813 7.06573 19.3438 8.37942 19.2188 8.69983C20.015 9.59698 20.5 10.7338 20.5 12.1436C20.5 17.0626 17.5788 18.152 14.7975 18.4724C15.25 18.8723 15.6413 19.6413 15.6413 20.8435C15.6413 22.557 15.625 23.9348 15.625 24.368C15.625 24.7038 15.86 25.1037 16.485 24.9755C18.9663 24.1165 21.1224 22.4814 22.6499 20.3002C24.1774 18.1191 24.9993 15.5017 25 12.8165C25 5.73538 19.4063 0 12.5 0Z" fill="white"/>
</svg>
