<svg width="25" height="19" viewBox="0 0 25 19" fill="none" xmlns="http://www.w3.org/2000/svg">
<path d="M24.9988 2.25551C24.0624 2.64264 23.0695 2.89689 22.0528 3.00985C23.1245 2.41077 23.9265 1.46794 24.3095 0.35705C23.3038 0.916499 22.2012 1.30857 21.0521 1.52066C20.2801 0.74864 19.257 0.236635 18.1416 0.0642389C17.0263 -0.108157 15.8813 0.0687171 14.8845 0.567363C13.8878 1.06601 13.0953 1.85849 12.6301 2.8216C12.165 3.78471 12.0533 4.86449 12.3124 5.89307C10.2729 5.79752 8.27773 5.30212 6.4564 4.43904C4.63506 3.57595 3.02827 2.36447 1.74034 0.883253C1.28445 1.61518 1.04488 2.44722 1.04616 3.29416C1.04616 4.95645 1.95129 6.42501 3.32736 7.28482C2.51301 7.26085 1.71658 7.05528 1.00446 6.68524V6.74485C1.00471 7.85195 1.41455 8.92489 2.1645 9.78177C2.91445 10.6386 3.95835 11.2267 5.11921 11.4463C4.36324 11.6378 3.57058 11.666 2.80122 11.5288C3.12852 12.4818 3.76644 13.3152 4.62568 13.9123C5.48491 14.5095 6.52243 14.8406 7.59297 14.8592C6.52899 15.6402 5.31076 16.2176 4.0079 16.5583C2.70504 16.899 1.34312 16.9964 0 16.8447C2.34461 18.2542 5.07395 19.0024 7.86156 19C17.2967 19 22.4563 11.6939 22.4563 5.3577C22.4563 5.15134 22.4502 4.9427 22.4404 4.73864C23.4447 4.06015 24.3115 3.21966 25 2.25665L24.9988 2.25551Z" fill="white"/>
</svg>
